<?xml version="1.0" encoding="utf-8"?>
<svg version="1.1" xmlns:xlink="http://www.w3.org/1999/xlink" width="75px" height="57px" xmlns="http://www.w3.org/2000/svg">
  <g transform="matrix(1 0 0 1 -259 -199 )">
    <path d="M 73.64516129032258 7.868686868686871  C 74.5483870967742 8.764309764309763  75.00000000000001 9.851851851851851  75 11.131313131313131  C 75.00000000000001 12.410774410774405  74.5483870967742 13.498316498316495  73.64516129032258 14.393939393939391  L 38.612903225806456 49.13131313131313  L 32.03225806451613 55.656565656565654  C 31.12903225806452 56.552188552188554  30.032258064516135 57  28.741935483870968 57  C 27.451612903225808 57  26.354838709677423 56.552188552188554  25.451612903225808 55.656565656565654  L 18.87096774193548 49.13131313131313  L 1.3548387096774195 31.762626262626267  C 0.4516129032258069 30.867003367003363  0 29.779461279461273  0 28.5  C 0 27.22053872053872  0.4516129032258069 26.13299663299663  1.3548387096774195 25.23737373737374  L 7.935483870967742 18.71212121212121  C 8.838709677419356 17.816498316498315  9.935483870967744 17.36868686868686  11.225806451612904 17.36868686868687  C 12.516129032258068 17.36868686868686  13.612903225806452 17.816498316498315  14.516129032258064 18.71212121212121  L 28.741935483870968 32.86616161616161  L 60.48387096774193 1.3434343434343436  C 61.38709677419356 0.4478114478114458  62.48387096774194 0  63.774193548387096 0  C 65.06451612903226 0  66.16129032258065 0.4478114478114458  67.06451612903226 1.3434343434343436  L 73.64516129032258 7.868686868686871  Z " fill-rule="nonzero" fill="#03a732" stroke="none" transform="matrix(1 0 0 1 259 199 )" />
  </g>
</svg>