<?xml version="1.0" encoding="utf-8"?>
<svg version="1.1" xmlns:xlink="http://www.w3.org/1999/xlink" width="26px" height="26px" xmlns="http://www.w3.org/2000/svg">
  <g transform="matrix(1 0 0 1 -340 -284 )">
    <path d="M 21.345052083333332 14.845052083333336  C 21.559461805555557 14.63064236111111  21.666666666666668 14.37673611111111  21.666666666666668 14.083333333333336  L 21.666666666666668 11.916666666666668  C 21.666666666666668 11.623263888888888  21.559461805555557 11.369357638888888  21.345052083333332 11.154947916666668  C 21.130642361111114 10.940538194444445  20.876736111111114 10.833333333333332  20.583333333333332 10.833333333333332  L 15.166666666666668 10.833333333333332  L 15.166666666666668 5.416666666666668  C 15.166666666666668 5.1232638888888875  15.059461805555557 4.8693576388888875  14.845052083333332 4.654947916666668  C 14.630642361111112 4.440538194444442  14.376736111111112 4.333333333333332  14.083333333333332 4.333333333333332  L 11.916666666666666 4.333333333333332  C 11.62326388888889 4.333333333333332  11.36935763888889 4.440538194444442  11.154947916666666 4.654947916666668  C 10.940538194444445 4.8693576388888875  10.833333333333334 5.1232638888888875  10.833333333333334 5.416666666666668  L 10.833333333333334 10.833333333333332  L 5.416666666666667 10.833333333333332  C 5.123263888888889 10.833333333333332  4.869357638888889 10.940538194444445  4.654947916666667 11.154947916666668  C 4.440538194444445 11.369357638888888  4.333333333333333 11.623263888888888  4.333333333333333 11.916666666666668  L 4.333333333333333 14.083333333333336  C 4.333333333333333 14.37673611111111  4.440538194444445 14.63064236111111  4.654947916666667 14.845052083333336  C 4.869357638888889 15.059461805555555  5.123263888888889 15.166666666666664  5.416666666666667 15.166666666666664  L 10.833333333333334 15.166666666666664  L 10.833333333333334 20.583333333333332  C 10.833333333333334 20.87673611111111  10.940538194444445 21.13064236111111  11.154947916666666 21.345052083333332  C 11.36935763888889 21.559461805555557  11.62326388888889 21.666666666666668  11.916666666666666 21.666666666666668  L 14.083333333333332 21.666666666666668  C 14.376736111111112 21.666666666666668  14.630642361111112 21.559461805555557  14.845052083333332 21.345052083333332  C 15.059461805555557 21.13064236111111  15.166666666666668 20.87673611111111  15.166666666666668 20.583333333333332  L 15.166666666666668 15.166666666666664  L 20.583333333333332 15.166666666666664  C 20.876736111111114 15.166666666666664  21.130642361111114 15.059461805555555  21.345052083333332 14.845052083333336  Z M 24.569661458333332 1.4303385416666676  C 25.52322048611111 2.383897569444442  26 3.532118055555552  26 4.875  L 26 21.125  C 26 22.467881944444443  25.52322048611111 23.616102430555557  24.569661458333332 24.569661458333332  C 23.616102430555557 25.52322048611111  22.467881944444446 26  21.125 26  L 4.875 26  C 3.532118055555556 26  2.3838975694444446 25.52322048611111  1.4303385416666667 24.569661458333332  C 0.47677951388888884 23.616102430555557  0 22.467881944444443  0 21.125  L 0 4.875  C 0 3.532118055555552  0.47677951388888884 2.383897569444442  1.4303385416666667 1.4303385416666676  C 2.3838975694444446 0.4767795138888873  3.532118055555556 0  4.875 0  L 21.125 0  C 22.467881944444446 0  23.616102430555557 0.4767795138888873  24.569661458333332 1.4303385416666676  Z " fill-rule="nonzero" fill="#000000" stroke="none" transform="matrix(1 0 0 1 340 284 )" />
  </g>
</svg>