<?xml version="1.0" encoding="utf-8"?>
<svg version="1.1" xmlns:xlink="http://www.w3.org/1999/xlink" width="26px" height="25px" xmlns="http://www.w3.org/2000/svg">
  <g transform="matrix(1 0 0 1 -266 -284 )">
    <path d="M 21.345052083333332 14.274088541666668  C 21.559461805555557 14.067925347222221  21.666666666666668 13.823784722222221  21.666666666666668 13.541666666666668  L 21.666666666666668 11.458333333333334  C 21.666666666666668 11.176215277777777  21.559461805555557 10.932074652777777  21.345052083333332 10.725911458333334  C 21.130642361111114 10.51974826388889  20.876736111111114 10.416666666666666  20.583333333333332 10.416666666666666  L 5.416666666666667 10.416666666666666  C 5.123263888888889 10.416666666666666  4.869357638888889 10.51974826388889  4.654947916666667 10.725911458333334  C 4.440538194444445 10.932074652777777  4.333333333333333 11.176215277777777  4.333333333333333 11.458333333333334  L 4.333333333333333 13.541666666666668  C 4.333333333333333 13.823784722222221  4.440538194444445 14.067925347222221  4.654947916666667 14.274088541666668  C 4.869357638888889 14.48025173611111  5.123263888888889 14.583333333333332  5.416666666666667 14.583333333333332  L 20.583333333333332 14.583333333333332  C 20.876736111111114 14.583333333333332  21.130642361111114 14.48025173611111  21.345052083333332 14.274088541666668  Z M 24.569661458333332 1.3753255208333344  C 25.52322048611111 2.2922092013888866  26 3.3962673611111076  26 4.6875  L 26 20.3125  C 26 21.603732638888886  25.52322048611111 22.707790798611114  24.569661458333332 23.624674479166664  C 23.616102430555557 24.54155815972222  22.467881944444446 25  21.125 25  L 4.875 25  C 3.532118055555556 25  2.3838975694444446 24.54155815972222  1.4303385416666667 23.624674479166664  C 0.47677951388888884 22.707790798611114  0 21.603732638888886  0 20.3125  L 0 4.6875  C 0 3.3962673611111076  0.47677951388888884 2.2922092013888866  1.4303385416666667 1.3753255208333344  C 2.3838975694444446 0.45844184027777624  3.532118055555556 0  4.875 0  L 21.125 0  C 22.467881944444446 0  23.616102430555557 0.45844184027777624  24.569661458333332 1.3753255208333344  Z " fill-rule="nonzero" fill="#000000" stroke="none" transform="matrix(1 0 0 1 266 284 )" />
  </g>
</svg>