<?xml version="1.0" encoding="utf-8"?>
<svg version="1.1" xmlns:xlink="http://www.w3.org/1999/xlink" width="92px" height="91px" xmlns="http://www.w3.org/2000/svg">
  <g transform="matrix(1 0 0 1 -414 -116 )">
    <path d="M 91.1 45.74  C 91.1 70.65  70.83999999999999 90.93  45.92 90.92999999999999  C 21.00999999999999 90.92999999999999  0.7400000000000019 70.66  0.7400000000000019 45.75  C 0.7400000000000019 20.84  21.00999999999999 0.5600000000000005  45.92 0.5600000000000005  C 70.83 0.5600000000000005  91.1 20.830000000000002  91.1 45.74  Z M 81.1 45.74  C 81.1 26.34  65.32000000000001 10.559999999999999  45.92 10.559999999999999  C 26.519999999999996 10.559999999999999  10.739999999999995 26.34  10.739999999999995 45.74  C 10.739999999999995 65.14  26.519999999999996 80.92  45.92 80.92  C 65.32000000000001 80.92  81.1 65.14  81.1 45.74  Z " fill-rule="nonzero" fill="#d7d7d7" stroke="none" fill-opacity="0.9058823529411765" transform="matrix(1 0 0 1 414 116 )" />
  </g>
</svg>