<?xml version="1.0" encoding="utf-8"?>
<svg version="1.1" xmlns:xlink="http://www.w3.org/1999/xlink" width="178px" height="85px" xmlns="http://www.w3.org/2000/svg">
  <g transform="matrix(1 0 0 1 -362 -200 )">
    <path d="M 177.7 42.72000000000003  C 177.7 65.96000000000001  158.79 84.88000000000002  135.53 84  L 42.83 84  C 19.579999999999995 84.88  0.6599999999999984 65.96000000000001  0.6599999999999984 42.71000000000001  C 0.6599999999999984 19.460000000000008  19.579999999999995 0.5400000000000063  42.83 1  L 135.53 1  C 143.33 0.5400000000000063  150.95 2.6900000000000115  157.56 6.750000000000014  C 159.9110789021044 8.197428019659299  160.64883642643565 11.273653333234478  159.21 13.63000000000001  C 157.76 15.980000000000018  154.68 16.72  152.32999999999998 15.280000000000003  C 147.27374048650003 12.18333099066757  141.45917407285066 10.546253661110327  135.53 11  L 42.83 11  C 25.090000000000003 10.550000000000011  10.66 24.980000000000032  10.66 42.72000000000003  C 10.66 60.46000000000004  25.090000000000003 74.89000000000001  42.83 74  L 135.53 74  C 153.27 74.89000000000001  167.7 60.460000000000015  167.7 42.72000000000003  C 167.7 39.96000000000001  169.94 37.72000000000003  172.7 37.72000000000003  C 175.46 37.72000000000003  177.7 39.96000000000001  177.7 42.72000000000003  Z " fill-rule="nonzero" fill="#44454a" stroke="none" transform="matrix(1 0 0 1 362 200 )" />
  </g>
</svg>